<svg width="56" height="31" viewBox="0 0 56 31" fill="none" xmlns="http://www.w3.org/2000/svg">
<path d="M0 6.5C0 3.18629 2.68629 0.5 6 0.5H45.0812C47.9413 0.5 50.4038 2.51876 50.9647 5.3233L54.5647 23.3233C55.3072 27.0361 52.4675 30.5 48.6812 30.5H6C2.68629 30.5 0 27.8137 0 24.5V6.5Z" fill="#FF5400"/>
<path d="M6.78613 16.8271V14.9062H10.5596V16.8271H6.78613ZM11.1885 16.8408L13.0479 16.6152C13.1071 17.0892 13.2666 17.4515 13.5264 17.7021C13.7861 17.9528 14.1006 18.0781 14.4697 18.0781C14.8662 18.0781 15.1989 17.9277 15.4678 17.627C15.7412 17.3262 15.8779 16.9206 15.8779 16.4102C15.8779 15.9271 15.748 15.5443 15.4883 15.2617C15.2285 14.9792 14.9118 14.8379 14.5381 14.8379C14.292 14.8379 13.998 14.8857 13.6562 14.9814L13.8682 13.416C14.3877 13.4297 14.7842 13.318 15.0576 13.0811C15.3311 12.8395 15.4678 12.5205 15.4678 12.124C15.4678 11.7868 15.3675 11.5179 15.167 11.3174C14.9665 11.1169 14.6999 11.0166 14.3672 11.0166C14.0391 11.0166 13.7588 11.1305 13.5264 11.3584C13.2939 11.5863 13.1527 11.9189 13.1025 12.3564L11.332 12.0557C11.4551 11.4495 11.6396 10.9665 11.8857 10.6064C12.1364 10.2419 12.4827 9.95703 12.9248 9.75195C13.3714 9.54232 13.8704 9.4375 14.4219 9.4375C15.3652 9.4375 16.1217 9.73828 16.6914 10.3398C17.1608 10.832 17.3955 11.388 17.3955 12.0078C17.3955 12.8874 16.9147 13.5892 15.9531 14.1133C16.5273 14.2363 16.9854 14.512 17.3271 14.9404C17.6735 15.3688 17.8467 15.8861 17.8467 16.4922C17.8467 17.3717 17.5254 18.1214 16.8828 18.7412C16.2402 19.361 15.4404 19.6709 14.4834 19.6709C13.5765 19.6709 12.8245 19.4111 12.2275 18.8916C11.6305 18.3675 11.2842 17.6839 11.1885 16.8408ZM22.2969 9.4375C23.2676 9.4375 24.0264 9.78385 24.5732 10.4766C25.2249 11.2969 25.5508 12.6572 25.5508 14.5576C25.5508 16.4535 25.2227 17.8161 24.5664 18.6455C24.0241 19.3291 23.2676 19.6709 22.2969 19.6709C21.3216 19.6709 20.5355 19.2972 19.9385 18.5498C19.3415 17.7979 19.043 16.4603 19.043 14.5371C19.043 12.6504 19.3711 11.2923 20.0273 10.4629C20.5697 9.7793 21.3262 9.4375 22.2969 9.4375ZM22.2969 11.0303C22.0645 11.0303 21.8571 11.1055 21.6748 11.2559C21.4925 11.4017 21.3512 11.666 21.251 12.0488C21.1188 12.5456 21.0527 13.3818 21.0527 14.5576C21.0527 15.7334 21.112 16.5423 21.2305 16.9844C21.349 17.4219 21.4971 17.7135 21.6748 17.8594C21.8571 18.0052 22.0645 18.0781 22.2969 18.0781C22.5293 18.0781 22.7367 18.0052 22.9189 17.8594C23.1012 17.709 23.2425 17.4424 23.3428 17.0596C23.4749 16.5674 23.541 15.7334 23.541 14.5576C23.541 13.3818 23.4818 12.5752 23.3633 12.1377C23.2448 11.6956 23.0944 11.4017 22.9121 11.2559C22.7344 11.1055 22.5293 11.0303 22.2969 11.0303ZM26.8564 11.9531C26.8564 11.0553 27.0524 10.39 27.4443 9.95703C27.8408 9.52409 28.3763 9.30762 29.0508 9.30762C29.748 9.30762 30.2926 9.52409 30.6846 9.95703C31.0811 10.3854 31.2793 11.0508 31.2793 11.9531C31.2793 12.8509 31.0811 13.5163 30.6846 13.9492C30.2926 14.3822 29.7594 14.5986 29.085 14.5986C28.3877 14.5986 27.8408 14.3844 27.4443 13.9561C27.0524 13.5231 26.8564 12.8555 26.8564 11.9531ZM28.3535 11.9395C28.3535 12.5911 28.4287 13.0286 28.5791 13.252C28.693 13.416 28.8503 13.498 29.0508 13.498C29.2559 13.498 29.4154 13.416 29.5293 13.252C29.6751 13.0286 29.748 12.5911 29.748 11.9395C29.748 11.2878 29.6751 10.8525 29.5293 10.6338C29.4154 10.4652 29.2559 10.3809 29.0508 10.3809C28.8503 10.3809 28.693 10.4629 28.5791 10.627C28.4287 10.8503 28.3535 11.2878 28.3535 11.9395ZM30.5137 19.8828H29.0918L34.4307 9.30762H35.8115L30.5137 19.8828ZM33.6172 17.251C33.6172 16.3532 33.8132 15.6878 34.2051 15.2549C34.6016 14.8219 35.1416 14.6055 35.8252 14.6055C36.5133 14.6055 37.0534 14.8219 37.4453 15.2549C37.8418 15.6878 38.04 16.3532 38.04 17.251C38.04 18.1533 37.8418 18.821 37.4453 19.2539C37.0534 19.6868 36.5202 19.9033 35.8457 19.9033C35.1484 19.9033 34.6016 19.6868 34.2051 19.2539C33.8132 18.821 33.6172 18.1533 33.6172 17.251ZM35.1143 17.2441C35.1143 17.8958 35.1895 18.3311 35.3398 18.5498C35.4538 18.7184 35.611 18.8027 35.8115 18.8027C36.0166 18.8027 36.1738 18.7207 36.2832 18.5566C36.4336 18.3333 36.5088 17.8958 36.5088 17.2441C36.5088 16.5924 36.4359 16.1549 36.29 15.9316C36.1761 15.7676 36.0166 15.6855 35.8115 15.6855C35.6064 15.6855 35.4492 15.7676 35.3398 15.9316C35.1895 16.1549 35.1143 16.5924 35.1143 17.2441Z" fill="white"/>
</svg>
