<svg width="11" height="6" viewBox="0 0 11 6" fill="none" xmlns="http://www.w3.org/2000/svg">
<path d="M9.38704 0.528753C9.66669 0.268431 10.12 0.268431 10.3993 0.528753C10.4655 0.588147 10.5184 0.660811 10.5547 0.742016C10.5909 0.82322 10.6096 0.911144 10.6096 1.00007C10.6096 1.08899 10.5909 1.17691 10.5547 1.25811C10.5184 1.33932 10.4655 1.41198 10.3993 1.47138L6.10418 5.4712C5.83319 5.72352 5.39688 5.73252 5.11423 5.4912L0.819084 1.47138C0.527763 1.22272 0.552096 0.800074 0.819084 0.528752C1.08607 0.257431 1.54839 0.280097 1.83971 0.528752L5.57654 4.07726L9.38704 0.528753Z" fill="white"/>
</svg>
