<svg xmlns="http://www.w3.org/2000/svg" version="1.1" xmlns:xlink="http://www.w3.org/1999/xlink" xmlns:svgjs="http://svgjs.com/svgjs" width="512" height="512" x="0" y="0" viewBox="0 0 24 24" style="enable-background:new 0 0 512 512" xml:space="preserve" class=""><g><clipPath id="clip0_1_20123"><path d="m0 0h24v24h-24z" fill="#000000" data-original="#000000"></path></clipPath><g clip-path="url(#clip0_1_20123)" clip-rule="evenodd" fill="#292929" fill-rule="evenodd"><path d="m19 5.99994h-11.08013c-.29192 0-.56927.12756-.75926.34921l-4.28571 4.99995c-.32099.3745-.32099.9271 0 1.3016l4.28571 5c.18999.2217.46734.3492.75926.3492h11.08013c.5523 0 1-.4477 1-1v-9.99996c0-.55229-.4477-1-1-1zm-11.08013-2h11.08013c1.6569 0 3 1.34314 3 3v9.99996c0 1.6569-1.3431 3-3 3h-11.08013c-.87577 0-1.70782-.3826-2.27777-1.0476l-4.28571-5c-.962978-1.1235-.962978-2.7813 0-3.9047l4.28571-5.00003c.56995-.66494 1.402-1.04763 2.27777-1.04763z" fill="#292929" data-original="#292929" class=""></path><path d="m15.7071 9.29295c.3905.39053.3905 1.02365 0 1.41425l-4 4c-.3905.3905-1.0237.3905-1.4142 0-.39053-.3906-.39053-1.0237 0-1.4142l4-4.00005c.3905-.39052 1.0237-.39052 1.4142 0z" fill="#292929" data-original="#292929" class=""></path><path d="m10.2929 9.29295c.3905-.39052 1.0237-.39052 1.4142 0l4 4.00005c.3905.3905.3905 1.0236 0 1.4142-.3905.3905-1.0237.3905-1.4142 0l-4-4c-.39053-.3906-.39053-1.02372 0-1.41425z" fill="#292929" data-original="#292929" class=""></path></g></g></svg>