<svg width="56" height="55" viewBox="0 0 56 55" fill="none" xmlns="http://www.w3.org/2000/svg">
<rect x="0.397217" width="55" height="55" rx="27.5" fill="#BD8A77" fill-opacity="0.2"/>
<path d="M27.495 17.2525L32.545 17.3267C33.765 17.3808 34.425 17.585 34.8667 17.7583C35.4517 17.9867 35.8683 18.2542 36.305 18.6908C36.721 19.0936 37.0399 19.5858 37.2375 20.13C37.4058 20.5717 37.6142 21.2317 37.6692 22.4517L37.7433 27.5025L37.6692 32.5533C37.6142 33.7742 37.4117 34.4333 37.2375 34.875C37.0092 35.46 36.7417 35.8775 36.305 36.3133C35.9025 36.7292 35.4106 37.0481 34.8667 37.2458C34.425 37.4142 33.7658 37.6225 32.545 37.6775L27.495 37.7517C24.1567 37.7517 23.765 37.7367 22.4458 37.6775C21.2258 37.6225 20.5658 37.4192 20.1242 37.2458C19.5392 37.0175 19.1225 36.75 18.6858 36.3133C18.27 35.9108 17.9511 35.4189 17.7533 34.875C17.585 34.4333 17.3767 33.7733 17.3217 32.5533L17.2475 27.5025L17.3217 22.4517C17.3758 21.2308 17.58 20.5717 17.7533 20.13C17.9528 19.5867 18.2714 19.0949 18.6858 18.6908C19.0884 18.275 19.5802 17.9561 20.1242 17.7583C20.5658 17.59 21.225 17.3817 22.4458 17.3267L27.495 17.2525ZM27.495 15L22.3417 15.0742C21.0117 15.1342 20.1042 15.3475 19.3108 15.655C18.4768 15.9687 17.7216 16.4614 17.0983 17.0983C16.4033 17.7925 15.9775 18.4925 15.655 19.3117C15.3475 20.105 15.1342 21.0133 15.0742 22.3475L15 27.4975L15.0742 32.6525C15.1333 33.9825 15.3467 34.89 15.6542 35.6892C15.9677 36.5234 16.4603 37.2786 17.0975 37.9017C17.7917 38.5967 18.4917 39.0233 19.31 39.345C20.1033 39.6525 21.0117 39.8658 22.3458 39.9258L27.5 40L32.6542 39.9258C33.9833 39.8667 34.8917 39.6533 35.69 39.345C36.5241 39.0313 37.2793 38.5386 37.9025 37.9017C38.5975 37.2075 39.0233 36.5075 39.3458 35.6892C39.6533 34.895 39.8667 33.9875 39.9258 32.6525L40 27.4975L39.9258 22.3425C39.8667 21.0125 39.6533 20.105 39.3458 19.3058C39.0323 18.4716 38.5397 17.7164 37.9025 17.0933C37.2772 16.4589 36.5226 15.9666 35.69 15.65C34.8967 15.3425 33.9883 15.1292 32.6542 15.0692L27.495 15ZM27.5 21.25C24.0517 21.25 21.25 24.0467 21.25 27.5C21.25 30.9533 24.0517 33.75 27.5 33.75C29.1569 33.7478 30.7454 33.0886 31.917 31.917C33.0886 30.7454 33.7478 29.1569 33.75 27.5C33.7478 25.8431 33.0886 24.2546 31.917 23.083C30.7454 21.9114 29.1569 21.2522 27.5 21.25ZM27.5 31.5575C26.424 31.5573 25.392 31.1297 24.6312 30.3688C23.8703 29.608 23.4427 28.576 23.4425 27.5C23.4427 26.424 23.8703 25.392 24.6312 24.6312C25.392 23.8703 26.424 23.4427 27.5 23.4425C28.576 23.4427 29.608 23.8703 30.3688 24.6312C31.1297 25.392 31.5573 26.424 31.5575 27.5C31.5573 28.576 31.1297 29.608 30.3688 30.3688C29.608 31.1297 28.576 31.5573 27.5 31.5575V31.5575ZM34.1408 22.0317C34.7883 22.0317 35.3125 21.5067 35.3125 20.86C35.3125 20.2133 34.7875 19.6883 34.1408 19.6883C33.4942 19.6883 32.9692 20.2133 32.9692 20.86C32.9692 21.5067 33.4942 22.0317 34.1408 22.0317Z" fill="#BD8A77"/>
</svg>
