<svg width="17" height="20" viewBox="0 0 17 20" fill="none" xmlns="http://www.w3.org/2000/svg">
<path d="M14.2329 2.45508C12.6626 0.872921 10.5707 0.00157482 8.34246 0.00157482H8.33284C3.84576 -0.0905673 -0.0907902 3.87408 0.00159407 8.37432C0.11905 11.552 3.16602 15.5876 5.53881 18.6881C6.23564 19.5233 7.25098 20 8.34176 20C9.47077 20 10.519 19.4896 11.2177 18.5996C12.9779 16.405 16.7789 11.1265 16.6641 8.37424C16.6642 6.13701 15.8007 4.03489 14.2329 2.45508ZM9.99439 17.6329C9.18972 18.6978 7.49702 18.6997 6.69204 17.6347C3.47463 13.5243 1.55877 10.1012 1.55877 8.37428C1.55877 4.61907 4.5976 1.56401 8.33284 1.56401H8.34246C12.0724 1.56401 15.1069 4.61911 15.1069 8.37428C15.1069 10.12 13.2435 13.4946 9.99439 17.6329ZM8.3766 11.6803C6.55192 11.6803 5.06743 10.191 5.06743 8.36026C5.2492 3.95572 11.5047 3.95701 11.6858 8.3603C11.6858 10.191 10.2013 11.6803 8.3766 11.6803ZM8.3766 6.60257C7.41059 6.60257 6.62469 7.39107 6.62469 8.36026C6.72092 10.6921 10.0326 10.6914 10.1285 8.36026C10.1285 7.39107 9.34264 6.60257 8.3766 6.60257Z" fill="white"/>
</svg>
