<svg width="21" height="20" viewBox="0 0 21 20" fill="none" xmlns="http://www.w3.org/2000/svg">
<path d="M20.0013 16.8748V8.51488C20.0013 6.79164 18.5993 5.38968 16.8761 5.38968H13.6585C14.3926 5.07723 14.6979 4.83874 14.8698 4.66689C15.936 3.60069 15.936 1.86585 14.8698 0.799652C13.8036 -0.266551 12.0688 -0.266551 11.0026 0.799652C10.7769 1.02529 10.4363 1.48134 9.96444 2.83576C9.49249 1.48134 9.15192 1.02525 8.92628 0.799652C7.86008 -0.266551 6.12532 -0.266551 5.05904 0.799652C3.99276 1.86585 3.99284 3.60069 5.05904 4.66689C5.23093 4.83874 5.53626 5.07727 6.27037 5.38968H3.1252C1.40197 5.38968 0 6.79164 0 8.51488V16.8748C0 18.598 1.40197 20 3.1252 20H16.8761C18.5993 20 20.0013 18.598 20.0013 16.8748H18.4387C18.4034 17.8918 17.7377 18.4374 16.8761 18.4374H10.7819V6.98955C11.6244 7.16198 12.3155 7.62666 12.8429 8.3778C13.419 9.19848 13.6337 10.1434 13.6337 10.5463C13.6337 10.9778 13.9835 11.3276 14.415 11.3276C14.8465 11.3276 15.1963 10.9778 15.1963 10.5463C15.1963 9.78187 14.8641 8.53734 14.1218 7.48001C14.0006 7.30746 13.8606 7.12905 13.7007 6.95228H16.8761C17.7377 6.95228 18.4387 7.65326 18.4387 8.51488V16.8748H20.0013ZM6.16399 3.56202C5.94257 3.3406 5.82069 3.04628 5.82069 2.73325C5.82026 2.57929 5.85037 2.42677 5.90929 2.28453C5.9682 2.14228 6.05475 2.01314 6.16392 1.90457C6.6209 1.44766 7.36438 1.44766 7.82133 1.90457C7.85602 1.93926 8.17573 2.29397 8.71732 4.04818L8.88999 4.63064L8.31542 4.4604C6.55464 3.91743 6.19876 3.59683 6.16399 3.56202ZM9.21935 18.4374H3.1252C2.26358 18.4374 1.5626 17.7364 1.5626 16.8748V8.51488C1.5626 7.65326 2.26358 6.95228 3.1252 6.95228H6.14556C5.71975 7.4141 5.35777 7.97262 5.0656 8.62547C4.3163 10.3 4.25809 12.0738 4.25809 12.5776C4.25809 13.0092 4.60788 13.3589 5.03939 13.3589C5.4709 13.3589 5.82069 13.0092 5.82069 12.5776C5.82069 12.2747 5.85304 10.6915 6.49198 9.26372C7.08226 7.94457 7.97892 7.19128 9.21935 6.97744V18.4374ZM11.6213 4.45786L11.0389 4.63053L11.2115 4.04814C11.7531 2.29397 12.0728 1.93922 12.1075 1.90453C12.336 1.67604 12.636 1.56185 12.9362 1.56185C13.2364 1.56185 13.5364 1.67611 13.7649 1.90453C13.8741 2.01309 13.9606 2.14224 14.0195 2.28448C14.0784 2.42673 14.1086 2.57925 14.1081 2.73321C14.1081 3.04624 13.9863 3.34056 13.7649 3.5619C13.7302 3.59659 13.3754 3.91634 11.6213 4.45786Z" fill="#FF5400"/>
</svg>
