<svg xmlns="http://www.w3.org/2000/svg" width="30" height="23" fill="none" xmlns:v="https://vecta.io/nano"><path d="M30 2.756a13.36 13.36 0 0 1-3.54.904c1.287-.724 2.252-1.864 2.715-3.207-1.21.678-2.534 1.156-3.915 1.413-.923-.943-2.152-1.57-3.495-1.784s-2.723-.002-3.924.602-2.155 1.567-2.713 2.737a5.48 5.48 0 0 0-.368 3.728 18.31 18.31 0 0 1-7.022-1.76c-2.184-1.044-4.11-2.509-5.653-4.3-.541.89-.826 1.898-.825 2.924a5.51 5.51 0 0 0 .723 2.731c.476.84 1.166 1.557 2.007 2.086-.978-.025-1.935-.272-2.79-.72v.071c.007 1.335.504 2.626 1.406 3.656a6.23 6.23 0 0 0 3.544 1.995 6.23 6.23 0 0 1-1.65.24 7.79 7.79 0 0 1-1.155-.099c.396 1.148 1.162 2.152 2.192 2.871s2.272 1.118 3.553 1.141c-2.164 1.604-4.836 2.479-7.59 2.486a12.61 12.61 0 0 1-1.5-.085c2.812 1.71 6.088 2.617 9.435 2.613a18.33 18.33 0 0 0 6.74-1.209c2.139-.821 4.083-2.034 5.718-3.571s2.929-3.364 3.806-5.376S27.018 8.674 27 6.499V5.75a12.24 12.24 0 0 0 3-2.995z" fill="#000"/></svg>