<svg xmlns="http://www.w3.org/2000/svg" width="30" height="28" fill="#000" xmlns:v="https://vecta.io/nano"><path d="M29.234 15.031A2.98 2.98 0 0 0 30 13.036a3 3 0 0 0-3-2.993h-5.823C21.754 8.297 22 5.98 22 4.987V3.99A4 4 0 0 0 18 0h-1a1 1 0 0 0-.97.756l-.545 2.174c-.763 3.045-3.187 6.404-5.695 7.015A3 3 0 0 0 7 8.048H1a1 1 0 0 0-1 .998v17.957A1 1 0 0 0 1 28h6c1.193 0 2.225-.698 2.708-1.706l3.436 1.143a11 11 0 0 0 3.479.563H25a3 3 0 0 0 3-2.993c0-.389-.075-.762-.211-1.103A3 3 0 0 0 30 21.017a2.98 2.98 0 0 0-.766-1.995 2.98 2.98 0 0 0 0-3.991zM8 25.007a1 1 0 0 1-1 .998H2V10.043h5a1 1 0 0 1 1 .998v13.967zm17-8.979h2a1 1 0 0 1 1 .998 1 1 0 0 1-1 .998h-2a1 1 0 0 0-1 .998 1 1 0 0 0 1 .998h2a1 1 0 0 1 1 .998 1 1 0 0 1-1 .998h-2a1 1 0 0 0-1 .998 1 1 0 0 0 1 .998 1 1 0 0 1 1 .998 1 1 0 0 1-1 .998h-8.377a9 9 0 0 1-2.847-.461L10 24.288V11.944c1.569-.297 3.104-1.288 4.49-2.91 1.353-1.584 2.451-3.685 2.935-5.619l.355-1.419H18a2 2 0 0 1 2 1.995v.997c0 1.339-.42 3.909-.957 5.055H17a1 1 0 0 0-1 .998 1 1 0 0 0 1 .998h10a1 1 0 0 1 1 .998 1 1 0 0 1-1 .998h-2a1 1 0 0 0-1 .998 1 1 0 0 0 1 .998zM5 24.01a1 1 0 1 0-1-.998 1 1 0 0 0 1 .998z"/></svg>