<svg width="25" height="25" viewBox="0 0 25 25" fill="none" xmlns="http://www.w3.org/2000/svg">
<path fill-rule="evenodd" clip-rule="evenodd" d="M8.46133 17.3828H20.4155C21.8536 17.3828 23.069 16.3532 23.3053 14.9347L24.9865 4.848C25.086 4.25093 24.6244 3.71089 24.0232 3.71089H5.45366L5.19668 2.34048L5.1917 2.31582C4.90415 0.973975 3.69937 0 2.32705 0H0.976318C0.436963 0 -0.000244141 0.437207 -0.000244141 0.976562C-0.000244141 1.51592 0.436963 1.95312 0.976318 1.95312H2.32705C2.78101 1.95312 3.17998 2.27285 3.27974 2.71489L5.58027 14.9849C5.83677 16.3743 7.04839 17.3828 8.46133 17.3828ZM7.50044 14.6276L5.81982 5.66406H22.8704L21.3788 14.6137C21.2999 15.0865 20.8949 15.4297 20.4155 15.4297H8.46133C7.99033 15.4297 7.58647 15.0935 7.50044 14.6276ZM8.40454 8.77119L9.12646 12.6774C9.36162 13.95 11.2818 13.5923 11.0471 12.3225L10.3251 8.41621C10.0901 7.14482 8.16982 7.50146 8.40454 8.77119ZM18.4489 8.43311L17.7976 12.3394C17.5867 13.6043 19.5079 13.957 19.7241 12.6606L20.3754 8.75435C20.5881 7.47891 18.6612 7.15972 18.4489 8.43311ZM5.66383 22.0703C5.66383 23.6857 6.97808 25 8.59351 25C10.2089 25 11.5232 23.6857 11.5232 22.0703C11.5232 20.4549 10.2089 19.1406 8.59351 19.1406C6.97808 19.1406 5.66383 20.4549 5.66383 22.0703ZM7.61695 22.0703C7.61695 21.5318 8.05504 21.0938 8.59351 21.0938C9.13199 21.0938 9.57008 21.5318 9.57008 22.0703C9.57008 22.6088 9.13199 23.0469 8.59351 23.0469C8.05504 23.0469 7.61695 22.6088 7.61695 22.0703ZM20.3123 25C18.6968 25 17.3826 23.6857 17.3826 22.0703C17.3826 20.4549 18.6968 19.1406 20.3123 19.1406C21.9277 19.1406 23.2419 20.4549 23.2419 22.0703C23.2419 23.6857 21.9277 25 20.3123 25ZM20.3123 21.0938C19.7738 21.0938 19.3357 21.5318 19.3357 22.0703C19.3357 22.6088 19.7738 23.0469 20.3123 23.0469C20.8507 23.0469 21.2888 22.6088 21.2888 22.0703C21.2888 21.5318 20.8507 21.0938 20.3123 21.0938ZM13.4763 8.59375V12.5C13.4763 13.793 15.4294 13.7911 15.4294 12.5V8.59375C15.4294 7.30078 13.4763 7.30264 13.4763 8.59375Z" fill="white"/>
</svg>
