<svg xmlns="http://www.w3.org/2000/svg" width="30" height="30" fill="#000" xmlns:v="https://vecta.io/nano"><path d="M14.994 2.703l6.06.089c1.464.065 2.256.31 2.786.518.702.274 1.202.595 1.726 1.119a4.58 4.58 0 0 1 1.119 1.727c.202.53.452 1.322.518 2.786l.089 6.061-.089 6.061c-.066 1.465-.309 2.256-.518 2.786-.274.702-.595 1.203-1.119 1.726a4.58 4.58 0 0 1-1.726 1.119c-.53.202-1.321.452-2.786.518l-6.06.089c-4.006 0-4.476-.018-6.059-.089-1.464-.066-2.256-.31-2.786-.518-.702-.274-1.202-.595-1.726-1.119a4.58 4.58 0 0 1-1.119-1.726c-.202-.53-.452-1.322-.518-2.786l-.089-6.061.089-6.061c.065-1.465.31-2.256.518-2.786a4.65 4.65 0 0 1 1.119-1.727A4.58 4.58 0 0 1 6.149 3.31c.53-.202 1.321-.452 2.786-.518l6.059-.089zm0-2.703L8.81.089C7.214.161 6.125.417 5.173.786a7.32 7.32 0 0 0-2.655 1.732c-.834.833-1.345 1.673-1.732 2.656-.369.952-.625 2.042-.697 3.643L0 14.997l.089 6.186c.071 1.596.327 2.685.696 3.644a7.31 7.31 0 0 0 1.732 2.655c.833.834 1.673 1.346 2.655 1.732.952.369 2.042.625 3.643.697L15 30l6.185-.089c1.595-.071 2.685-.327 3.643-.697a7.32 7.32 0 0 0 2.655-1.732c.834-.833 1.345-1.673 1.732-2.655.369-.953.625-2.042.696-3.644L30 14.997l-.089-6.186c-.071-1.596-.327-2.685-.696-3.644a7.31 7.31 0 0 0-1.732-2.655A7.44 7.44 0 0 0 24.828.78c-.952-.369-2.042-.625-3.643-.697L14.994 0zM15 7.5c-4.138 0-7.5 3.356-7.5 7.5s3.362 7.5 7.5 7.5a7.51 7.51 0 0 0 7.5-7.5A7.51 7.51 0 0 0 15 7.5zm0 12.369A4.87 4.87 0 0 1 10.131 15 4.87 4.87 0 0 1 15 10.131 4.87 4.87 0 0 1 19.869 15 4.87 4.87 0 0 1 15 19.869zm7.969-11.431c.777 0 1.406-.63 1.406-1.406s-.63-1.406-1.406-1.406-1.406.63-1.406 1.406.63 1.406 1.406 1.406z"/></svg>