<svg xmlns="http://www.w3.org/2000/svg" width="30" height="20" fill="none" xmlns:v="https://vecta.io/nano"><path d="M29.993 7.049c.067-1.851-.359-3.687-1.24-5.34A4.03 4.03 0 0 0 26.409.416C22.617.089 18.81-.044 15.003.015 11.21-.047 7.416.082 3.637.403a3.99 3.99 0 0 0-1.99.957C.421 2.433.285 4.269.148 5.82a59.24 59.24 0 0 0 0 8.378 11.76 11.76 0 0 0 .409 2.586c.164.653.497 1.257.968 1.758a3.97 3.97 0 0 0 2.031 1.009 64.86 64.86 0 0 0 8.858.427c4.77.065 8.953 0 13.9-.362.787-.127 1.514-.479 2.085-1.009.382-.362.667-.805.831-1.293.487-1.419.727-2.904.709-4.396.054-.724.054-5.094.054-5.87zm-18.07 6.646V5.691l8.068 4.021c-2.262 1.19-5.247 2.534-8.068 3.982z" fill="#000"/></svg>