<svg width="25" height="25" viewBox="0 0 25 25" fill="none" xmlns="http://www.w3.org/2000/svg">
<path d="M12.4998 25C9.16089 25 6.02188 23.6998 3.66089 21.3389C1.2999 18.978 -0.000244141 15.8389 -0.000244141 12.5C-0.000244141 9.16113 1.3 6.02212 3.66089 3.66113C6.02178 1.30015 9.16089 0 12.4998 0C15.8386 0 18.9776 1.30024 21.3386 3.66113C23.6996 6.02202 24.9998 9.16113 24.9998 12.5C24.9998 15.8389 23.6995 18.9779 21.3386 21.3389C18.9777 23.6999 15.8386 25 12.4998 25ZM12.4998 1.95312C6.68418 1.95312 1.95288 6.68442 1.95288 12.5C1.95288 18.3156 6.68418 23.0469 12.4998 23.0469C18.3153 23.0469 23.0466 18.3156 23.0466 12.5C23.0466 6.68442 18.3153 1.95312 12.4998 1.95312ZM12.4509 13.4277C9.86621 13.4277 7.76343 11.325 7.76343 8.74023C7.76343 6.15552 9.86621 4.05273 12.4509 4.05273C15.0356 4.05273 17.1384 6.15552 17.1384 8.74023C17.1384 11.325 15.0356 13.4277 12.4509 13.4277ZM12.4509 6.00586C10.9432 6.00586 9.71655 7.23252 9.71655 8.74023C9.71655 10.2479 10.9432 11.4746 12.4509 11.4746C13.9587 11.4746 15.1853 10.2479 15.1853 8.74023C15.1853 7.23252 13.9587 6.00586 12.4509 6.00586ZM18.638 19.1148C19.0553 18.7731 19.1165 18.1578 18.7748 17.7405C17.3938 16.0547 15.3535 15.0879 13.1768 15.0879H12.0181C9.84136 15.0879 7.80098 16.0547 6.42012 17.7406C6.07837 18.1578 6.13955 18.7731 6.55684 19.1149C6.97412 19.4567 7.58936 19.3954 7.93115 18.9782C8.93945 17.7471 10.4291 17.041 12.0181 17.041H13.1768C14.7657 17.041 16.2554 17.7471 17.2637 18.9782C17.3553 19.0902 17.4706 19.1804 17.6014 19.2423C17.7322 19.3042 17.8751 19.3362 18.0198 19.3359C18.2375 19.3359 18.4565 19.2635 18.638 19.1148Z" fill="white"/>
</svg>
