<svg width="56" height="55" viewBox="0 0 56 55" fill="none" xmlns="http://www.w3.org/2000/svg">
<rect x="0.397217" width="55" height="55" rx="27.5" fill="#FF5400" fill-opacity="0.2"/>
<path d="M34.2749 30.4057C34.3077 31.8336 35.5727 32.9951 37.0044 32.9625C37.6369 32.9298 38.2356 32.6971 38.6685 32.298C38.8681 32.099 39.1679 31.999 39.4678 31.999H40V39.1038C40 39.5683 39.6336 39.9337 39.1679 39.9337H32.0111V39.4029C32.0111 39.1038 32.1442 38.8058 32.3438 38.5731C32.7429 38.1086 33.01 37.5106 33.01 36.8471V36.5817V36.5154C33.01 36.449 33.01 36.3827 32.9762 36.3163C32.9762 36.2827 32.9762 36.25 32.9435 36.2163C32.9435 36.15 32.9097 36.1163 32.9097 36.05C32.9097 36.0163 32.876 35.9836 32.876 35.95C32.8432 35.8836 32.8432 35.85 32.8094 35.7836C32.8094 35.7509 32.7757 35.7173 32.7757 35.6836C32.7429 35.6509 32.7429 35.5846 32.7092 35.5509C32.7092 35.5173 32.6754 35.4846 32.6754 35.4509C32.6426 35.4173 32.6089 35.3509 32.5752 35.3182C32.5414 35.2855 32.5424 35.2519 32.5086 35.2519C32.4758 35.2182 32.4421 35.1519 32.4084 35.1192L32.3418 35.0529L32.2416 34.9529C32.2078 34.9192 32.175 34.9192 32.175 34.8865C32.1413 34.8528 32.1085 34.8202 32.042 34.7865C32.0082 34.7528 31.9755 34.7528 31.9755 34.7202C31.9417 34.6865 31.8752 34.6538 31.8424 34.6202C31.8096 34.5865 31.7759 34.5865 31.7421 34.5538C31.7084 34.5211 31.6419 34.4875 31.6091 34.4875C31.5763 34.4875 31.5426 34.4538 31.5088 34.4538C31.4751 34.4211 31.4085 34.4211 31.3758 34.3875C31.342 34.3875 31.3092 34.3538 31.2755 34.3538C31.2417 34.3538 31.1752 34.3211 31.1424 34.2875C31.1097 34.2875 31.0759 34.2875 31.0431 34.2548C31.0094 34.2548 30.9429 34.2211 30.9101 34.2211H30.8098H30.643H30.51H30.3769H30.3441H30.2111H30.078C30.0115 34.2211 29.9778 34.2548 29.9112 34.2548H29.8139C29.7432 34.2616 29.675 34.2843 29.6143 34.3211H29.5815C29.515 34.3538 29.4147 34.3875 29.3482 34.4211C28.8014 34.6628 28.3547 35.0848 28.0832 35.6163V35.65L27.9829 35.849C27.9829 35.849 27.9829 35.8817 27.9502 35.9154C27.9164 35.9817 27.9164 36.0154 27.8836 36.0817C27.8836 36.1154 27.8509 36.1481 27.8509 36.1817C27.8509 36.2154 27.8181 36.2817 27.8181 36.3144C27.8181 36.3471 27.7853 36.3807 27.7853 36.4144V36.5471V36.6798V36.8125V36.9452V36.9788V37.0788V37.2115V37.3115C27.7853 37.3452 27.7853 37.4115 27.8181 37.4442C27.8181 37.4779 27.8181 37.5106 27.8509 37.5442C27.8509 37.5779 27.8836 37.6442 27.8836 37.6769C27.8836 37.7096 27.9174 37.7433 27.9174 37.7769C27.9174 37.8106 27.9502 37.8433 27.9502 37.8769C27.9502 37.9106 27.9829 37.9433 27.9829 37.9769C27.9829 38.0106 28.0157 38.0433 28.0157 38.0769C28.0157 38.1106 28.0495 38.1433 28.0823 38.1769C28.115 38.2106 28.115 38.2433 28.1488 38.2769C28.1825 38.3106 28.1825 38.3433 28.2153 38.3769C28.2481 38.4106 28.2491 38.4433 28.2818 38.4769C28.3146 38.5106 28.3146 38.5433 28.3484 38.5769L28.4149 38.6433C28.6145 38.876 28.7475 39.174 28.7475 39.4731V40H21.5579C21.0922 40 20.7259 39.6346 20.7259 39.1702V31.9663H20.1937C19.8938 31.9663 19.6277 32.0663 19.3944 32.2653C18.9615 32.6634 18.3628 32.9298 17.7303 32.9298C16.2985 32.9961 15.0336 31.8346 15.0008 30.373C14.9922 30.0231 15.0538 29.6749 15.1821 29.3491C15.3104 29.0233 15.5028 28.7263 15.7478 28.4757C15.9929 28.2252 16.2858 28.026 16.6092 27.8899C16.9326 27.7539 17.28 27.6837 17.631 27.6836C18.2972 27.6836 18.8959 27.9163 19.3616 28.348C19.5949 28.547 19.861 28.6797 20.1937 28.6797H20.7259V21.5412C20.7259 21.0768 21.0922 20.7114 21.5579 20.7114H28.7147V20.1806C28.7147 19.8816 28.6145 19.6162 28.4149 19.3835C28.0157 18.9518 27.7487 18.3547 27.7487 17.7239C27.7246 17.0287 27.9773 16.3523 28.4514 15.8422C28.9255 15.332 29.5827 15.0296 30.2795 15.0008C30.6304 14.9922 30.9795 15.0537 31.3062 15.1816C31.6329 15.3096 31.9307 15.5014 32.1819 15.7458C32.4332 15.9902 32.6329 16.2823 32.7693 16.6048C32.9057 16.9274 32.9761 17.2738 32.9762 17.6239C32.9762 18.2883 32.7429 18.8854 32.31 19.3499C32.1104 19.5826 31.9774 19.8479 31.9774 20.1797V20.7104H39.1679C39.6336 20.7104 40 21.0758 40 21.5403V28.6778H39.4678C39.1679 28.6778 38.8681 28.5451 38.6357 28.3461C38.1701 27.948 37.5704 27.6816 36.9051 27.6816C35.4406 27.7143 34.2422 28.9095 34.2749 30.4038V30.4057Z" fill="#FF5400"/>
</svg>
