<svg width="56" height="55" viewBox="0 0 56 55" fill="none" xmlns="http://www.w3.org/2000/svg">
<rect x="0.397217" width="55" height="55" rx="27.5" fill="#E22B26" fill-opacity="0.2"/>
<path d="M39.9943 25.8742C40.0501 24.3317 39.6951 22.8017 38.961 21.4242C38.4517 20.853 37.7625 20.4728 37.0076 20.3467C33.8477 20.0742 30.6752 19.9634 27.5027 20.0126C24.3419 19.9609 21.1802 20.0684 18.0311 20.3359C17.4143 20.4404 16.8395 20.7169 16.3727 21.1334C15.3511 22.0276 15.2377 23.5576 15.1236 24.8501C14.9588 27.1743 14.9588 29.5074 15.1236 31.8317C15.1566 32.5605 15.2709 33.2833 15.4644 33.9867C15.6011 34.5308 15.8786 35.0342 16.2711 35.4517C16.7415 35.8906 17.3296 36.1828 17.9636 36.2925C20.4131 36.5794 22.8794 36.6983 25.3452 36.6483C29.3202 36.7025 32.806 36.6483 36.9285 36.3467C37.5843 36.2408 38.1901 35.9475 38.666 35.5058C38.9843 35.2042 39.2218 34.835 39.3585 34.4283C39.7643 33.2458 39.9643 32.0084 39.9493 30.765C39.9943 30.1617 39.9943 26.52 39.9943 25.8734V25.8742ZM24.936 31.4125V24.7426L31.6593 28.0934C29.7743 29.085 27.2869 30.205 24.936 31.4117V31.4125Z" fill="#E22B26"/>
</svg>
