<svg width="56" height="55" viewBox="0 0 56 55" fill="none" xmlns="http://www.w3.org/2000/svg">
<rect x="0.397217" width="55" height="55" rx="27.5" fill="#00ACED" fill-opacity="0.2"/>
<path d="M40 20.296C39.0558 20.681 38.0632 20.9345 37.05 21.0493C38.1225 20.446 38.9267 19.496 39.3125 18.3768C38.3042 18.9418 37.2008 19.3401 36.05 19.5543C35.2808 18.7685 34.2567 18.246 33.1375 18.0676C32.0183 17.8893 30.8683 18.066 29.8675 18.5693C28.8667 19.0726 28.0717 19.8751 27.6067 20.8501C27.1427 21.8175 27.0341 22.9174 27.3 23.9568C25.2713 23.8622 23.2818 23.3636 21.4483 22.4901C19.6283 21.6201 18.0233 20.3993 16.7375 18.9068C16.2867 19.6485 16.0492 20.4885 16.05 21.3435C16.0496 22.1416 16.2573 22.926 16.6525 23.6193C17.0492 24.3193 17.6242 24.9168 18.325 25.3576C17.51 25.3368 16.7125 25.131 16 24.7576V24.8168C16.0058 25.9293 16.42 27.0051 17.1717 27.8635C17.9424 28.7324 18.9823 29.3178 20.125 29.526C19.6777 29.654 19.2152 29.7212 18.75 29.726C18.4276 29.7224 18.1058 29.6948 17.7875 29.6435C18.1175 30.6001 18.7558 31.4368 19.6142 32.036C20.4725 32.6351 21.5075 32.9676 22.575 32.9868C20.7717 34.3235 18.545 35.0526 16.25 35.0585C15.8323 35.0597 15.4149 35.0361 15 34.9876C17.3433 36.4126 20.0733 37.1685 22.8625 37.1651C24.7814 37.1851 26.6869 36.8433 28.4792 36.1576C30.2617 35.4735 31.8817 34.4626 33.2442 33.1818C34.6067 31.901 35.685 30.3785 36.4158 28.7018C37.1467 27.0251 37.515 25.2276 37.5 23.4151V22.791C38.4722 22.1108 39.3182 21.2662 40 20.2951V20.296Z" fill="#00ACED"/>
</svg>
