<svg width="144" height="56" viewBox="0 0 144 56" fill="none" xmlns="http://www.w3.org/2000/svg">
<g clip-path="url(#clip0_1_720)">
<path d="M52.8486 18.6826L52.3742 17.1968C52.2579 16.8298 52.1594 16.4203 52.0699 16.0713H52.052C51.9648 16.4203 51.873 16.8388 51.7678 17.1968L51.3024 18.6826H52.8486ZM51.1234 19.5128L50.6043 21.2223H49.4675L51.4009 15.1941H52.8039L54.7618 21.2223H53.5826L53.0366 19.5128" fill="white"/>
<path d="M56.4065 16.8677L57.1136 19.074C57.2389 19.4589 57.3262 19.808 57.4067 20.166H57.4336C57.5141 19.808 57.6126 19.4678 57.729 19.074L58.4271 16.8677H59.5795L57.9169 21.2222H56.8361L55.2161 16.8677" fill="white"/>
<path d="M62.898 19.092C62.1193 19.083 61.3764 19.2441 61.3764 19.9065C61.3764 20.3361 61.6538 20.533 62.0029 20.533C62.4482 20.533 62.7637 20.2466 62.8689 19.9333C62.898 19.8528 62.898 19.7722 62.898 19.6917V19.092ZM63.9698 20.175C63.9698 20.5688 63.9877 20.9537 64.0414 21.22H63.0479L62.9696 20.7389H62.9405C62.6832 21.0768 62.2267 21.3184 61.6538 21.3184C60.7767 21.3184 60.2866 20.6852 60.2866 20.0228C60.2866 18.9309 61.26 18.3692 62.8689 18.3782V18.3066C62.8689 18.0201 62.7548 17.5458 61.985 17.5458C61.5554 17.5458 61.1078 17.68 60.8125 17.868L60.5977 17.1519C60.9199 16.955 61.4838 16.7693 62.173 16.7693C63.567 16.7693 63.9698 17.6532 63.9698 18.6109" fill="white"/>
<path d="M65.5248 16.8678H66.6235V21.2222H65.5248V16.8678ZM66.0686 16.2412C65.7038 16.2412 65.4622 15.9727 65.4622 15.6505C65.4622 15.3103 65.7105 15.0508 66.0798 15.0508C66.4534 15.0508 66.6862 15.3103 66.6951 15.6505C66.6951 15.9727 66.4534 16.2412 66.0798 16.2412" fill="white"/>
<path d="M68.2056 21.2222H69.3065V14.8628H68.2056V21.2222Z" fill="white"/>
<path d="M73.2046 19.092C72.4259 19.083 71.683 19.2441 71.683 19.9065C71.683 20.3361 71.9605 20.533 72.3096 20.533C72.7571 20.533 73.0704 20.2466 73.1778 19.9333C73.2046 19.8528 73.2046 19.7722 73.2046 19.6917L73.2046 19.092ZM74.2765 20.175C74.2765 20.5688 74.2943 20.9537 74.3481 21.22H73.3568L73.2762 20.7389H73.2494C72.9898 21.0768 72.5333 21.3184 71.9605 21.3184C71.0855 21.3184 70.5933 20.6852 70.5933 20.0228C70.5933 18.9309 71.5689 18.3692 73.1778 18.3782V18.3066C73.1778 18.0201 73.0614 17.5458 72.2916 17.5458C71.862 17.5458 71.4145 17.68 71.1214 17.868L70.9065 17.1519C71.2288 16.955 71.7904 16.7693 72.4796 16.7693C73.8737 16.7693 74.2764 17.6532 74.2764 18.6109" fill="white"/>
<path d="M76.9324 19.4231C76.9324 19.5126 76.9413 19.6022 76.9592 19.6827C77.0756 20.1302 77.4605 20.4525 77.9326 20.4525C78.6218 20.4525 79.0425 19.9065 79.0425 19.0226C79.0425 18.2528 78.6755 17.6263 77.9416 17.6263C77.494 17.6263 77.0845 17.9485 76.9682 18.4319C76.9503 18.5124 76.9324 18.6109 76.9324 18.7183L76.9324 19.4231ZM75.8314 14.8628H76.9324V17.4652H76.9502C77.2188 17.0445 77.6909 16.7693 78.3443 16.7693C79.4094 16.7693 80.168 17.6532 80.159 18.9778C80.159 20.542 79.1677 21.3207 78.1832 21.3207C77.6193 21.3207 77.1203 21.1059 76.807 20.5688H76.7891L76.7355 21.2222H75.7957C75.8135 20.9268 75.8315 20.4435 75.8315 20.0049" fill="white"/>
<path d="M81.4548 21.2222H82.5535V14.8628H81.4548V21.2222Z" fill="white"/>
<path d="M86.8363 18.584C86.8453 18.1812 86.6663 17.5189 85.9345 17.5189C85.2543 17.5189 84.9679 18.1365 84.9231 18.584H86.8363ZM84.9231 19.3515C84.95 20.1392 85.5676 20.4793 86.2657 20.4793C86.7737 20.4793 87.1317 20.3988 87.4718 20.2824L87.6329 21.032C87.257 21.1954 86.7379 21.3095 86.1136 21.3095C84.6994 21.3095 83.8669 20.4435 83.8669 19.1121C83.8669 17.9038 84.6009 16.7693 85.9972 16.7693C87.4092 16.7693 87.8746 17.9306 87.8746 18.8883C87.8746 19.0942 87.8567 19.2553 87.8388 19.3515" fill="white"/>
<path d="M93.3367 20.5241C93.961 20.5241 94.3995 19.9154 94.3995 19.0316C94.3995 18.3513 94.0952 17.5637 93.3456 17.5637C92.5669 17.5637 92.2536 18.3245 92.2536 19.0495C92.2536 19.8886 92.6743 20.5241 93.3255 20.5241H93.3367ZM93.3009 21.3207C92.0746 21.3207 91.1191 20.4793 91.1191 19.0763C91.1191 17.6442 92.0567 16.7693 93.3725 16.7693C94.6681 16.7693 95.5363 17.68 95.5363 19.0047C95.5363 20.6046 94.4085 21.3207 93.3098 21.3207" fill="white"/>
<path d="M96.8297 18.1633C96.8297 17.6621 96.8141 17.2414 96.7961 16.8655H97.7516L97.8053 17.5189H97.8322C98.0291 17.1788 98.5035 16.7693 99.2285 16.7693C99.987 16.7693 100.775 17.2593 100.775 18.6377V21.22H99.6738V18.763C99.6738 18.1365 99.441 17.6621 98.8436 17.6621C98.405 17.6621 98.1007 17.9754 97.9843 18.3066C97.9485 18.3961 97.9307 18.5303 97.9307 18.6556V21.22H96.8297" fill="white"/>
<path d="M105.843 15.749V16.8656H106.888V17.6891H105.843V19.6023C105.843 20.1393 105.986 20.4078 106.405 20.4078C106.602 20.4078 106.709 20.3989 106.834 20.3631L106.852 21.1932C106.691 21.2581 106.396 21.3096 106.056 21.3096C105.646 21.3096 105.315 21.1753 105.109 20.9538C104.867 20.7032 104.76 20.3004 104.76 19.7276V17.6891H104.142V16.8656H104.76V16.0533" fill="white"/>
<path d="M108.112 14.8628H109.213V17.4562H109.231C109.365 17.2504 109.553 17.0803 109.777 16.964C110.001 16.8409 110.258 16.7693 110.535 16.7693C111.278 16.7693 112.055 17.2593 112.055 18.6556V21.2222H110.956V18.772C110.956 18.1454 110.723 17.6621 110.115 17.6621C109.687 17.6621 109.383 17.9485 109.258 18.2797C109.222 18.3782 109.213 18.4945 109.213 18.6109V21.2222H108.112" fill="white"/>
<path d="M116.311 18.584C116.32 18.1812 116.141 17.5189 115.407 17.5189C114.726 17.5189 114.442 18.1365 114.397 18.584H116.311ZM114.397 19.3515C114.424 20.1392 115.04 20.4793 115.738 20.4793C116.248 20.4793 116.606 20.3988 116.944 20.2824L117.107 21.032C116.731 21.1954 116.212 21.3095 115.586 21.3095C114.174 21.3095 113.341 20.4435 113.341 19.1121C113.341 17.9038 114.075 16.7693 115.469 16.7693C116.881 16.7693 117.347 17.9306 117.347 18.8883C117.347 19.0942 117.329 19.2553 117.311 19.3515" fill="white"/>
<path d="M37.4423 27.0671C37.4132 24.0843 39.8836 22.632 39.9977 22.5649C38.5991 20.5242 36.4309 20.2467 35.6678 20.2243C33.8486 20.0341 32.0831 21.3163 31.1567 21.3163C30.2102 21.3163 28.7803 20.2445 27.243 20.2758C25.2605 20.3071 23.4077 21.455 22.3918 23.234C20.2973 26.8657 21.8592 32.2003 23.8686 35.1361C24.8756 36.5727 26.0481 38.1793 27.5854 38.1211C29.0891 38.0585 29.6507 37.1634 31.4655 37.1634C33.2646 37.1634 33.7927 38.1211 35.3613 38.0853C36.9746 38.0585 37.9905 36.642 38.9594 35.1898C40.123 33.5429 40.5884 31.9206 40.6063 31.8378C40.5683 31.8243 37.4736 30.6429 37.4423 27.0671Z" fill="white"/>
<path d="M34.4795 18.2954C35.2873 17.284 35.8445 15.9056 35.6879 14.5093C34.5176 14.563 33.0541 15.3193 32.2105 16.3084C31.4654 17.181 30.7963 18.6109 30.9709 19.9535C32.2866 20.052 33.6359 19.2912 34.4795 18.2954Z" fill="white"/>
<path d="M55.5896 32.7618L54.5514 29.5552C54.4417 29.2285 54.2359 28.4565 53.9315 27.2437H53.8957C53.7749 27.7651 53.578 28.5371 53.3117 29.5552L52.2913 32.7618H55.5896ZM59.1788 37.8838H57.0822L55.9342 34.2767H51.9467L50.8525 37.8838H48.8118L52.7679 25.6035H55.207" fill="white"/>
<path d="M67.3419 33.4197C67.3419 32.556 67.1472 31.8466 66.7578 31.2872C66.3327 30.7054 65.7621 30.4123 65.046 30.4123C64.5605 30.4123 64.1174 30.5757 63.7258 30.8956C63.332 31.2201 63.0724 31.6408 62.9493 32.1644C62.8889 32.4061 62.8598 32.6052 62.8598 32.7618V34.2387C62.8598 34.8831 63.0568 35.4269 63.4506 35.87C63.8466 36.3153 64.3591 36.5345 64.9901 36.5345C65.733 36.5345 66.3103 36.2504 66.7198 35.6775C67.136 35.1069 67.3419 34.3551 67.3419 33.4197ZM69.3468 33.3459C69.3468 34.8518 68.9396 36.0445 68.125 36.9172C67.3956 37.6959 66.4893 38.083 65.4108 38.083C64.2427 38.083 63.4058 37.6623 62.8956 36.8254H62.8598V41.491H60.8907V31.9429C60.8907 30.9963 60.8683 30.0252 60.8191 29.0272H62.5488L62.6584 30.4324H62.6965C63.3521 29.374 64.3479 28.8459 65.6838 28.8459C66.7265 28.8459 67.6014 29.2599 68.2973 30.0856C68.9955 30.9135 69.3468 31.9988 69.3468 33.3459Z" fill="white"/>
<path d="M77.5254 33.4197C77.5254 32.556 77.3307 31.8466 76.9414 31.2872C76.5162 30.7054 75.9456 30.4123 75.2296 30.4123C74.744 30.4123 74.3032 30.5757 73.9094 30.8956C73.5133 31.2201 73.2582 31.6408 73.1374 32.1644C73.0747 32.4061 73.0456 32.6052 73.0456 32.7618V34.2387C73.0456 34.8831 73.2403 35.4269 73.6341 35.87C74.0302 36.3153 74.5426 36.5345 75.1759 36.5345C75.9165 36.5345 76.4939 36.2504 76.9056 35.6775C77.3173 35.1069 77.5254 34.3551 77.5254 33.4197ZM79.5281 33.3459C79.5281 34.8518 79.1231 36.0445 78.3086 36.9172C77.5791 37.6959 76.6751 38.083 75.5943 38.083C74.4285 38.083 73.5916 37.6623 73.0792 36.8254H73.0456V41.491H71.0765V31.9429C71.0765 30.9963 71.0519 30.0252 71.0049 29.0272H72.7346L72.8442 30.4324H72.8823C73.5357 29.374 74.5314 28.8459 75.8673 28.8459C76.9123 28.8459 77.7827 29.2599 78.4831 30.0856C79.1813 30.9135 79.5281 31.9988 79.5281 33.3459" fill="white"/>
<path d="M90.9179 34.4402C90.9179 35.4829 90.5554 36.3332 89.8259 36.9911C89.0248 37.7071 87.9127 38.0652 86.4828 38.0652C85.1604 38.0652 84.0997 37.8101 83.2964 37.2999L83.7529 35.6619C84.6188 36.1833 85.5654 36.4429 86.5992 36.4429C87.3398 36.4429 87.9172 36.2773 88.3311 35.9439C88.7428 35.6082 88.9487 35.1607 88.9487 34.6013C88.9487 34.1045 88.7809 33.6816 88.4408 33.3415C88.1006 33.0014 87.5345 32.6858 86.7446 32.3927C84.5942 31.5894 83.5202 30.4146 83.5202 28.8706C83.5202 27.8615 83.8961 27.0335 84.6502 26.3891C85.402 25.7446 86.4045 25.4202 87.6553 25.4202C88.7742 25.4202 89.7028 25.6171 90.4435 26.0042L89.9512 27.6086C89.2597 27.2327 88.4766 27.0425 87.6016 27.0425C86.908 27.0425 86.3687 27.2125 85.9816 27.5527C85.6549 27.857 85.4893 28.2284 85.4893 28.6648C85.4893 29.1503 85.675 29.5509 86.0532 29.8664C86.3799 30.1573 86.9751 30.4728 87.8388 30.8152C88.895 31.2403 89.6715 31.7371 90.1705 32.3077C90.6672 32.8783 90.9179 33.5899 90.9179 34.4402Z" fill="white"/>
<path d="M97.4204 30.5039H95.2521V34.8025C95.2521 35.8967 95.6347 36.4427 96.4022 36.4427C96.7513 36.4427 97.0444 36.4136 97.2749 36.3532L97.3286 37.8457C96.9437 37.9934 96.4313 38.065 95.8003 38.065C95.0238 38.065 94.4152 37.8278 93.9766 37.3557C93.5402 36.8813 93.321 36.0847 93.321 34.9681V30.5039H92.0276V29.0271H93.321V27.407L95.252 26.823V29.0271H97.4203" fill="white"/>
<path d="M105.165 33.4466C105.165 32.6298 104.988 31.9317 104.635 31.3454C104.225 30.6383 103.635 30.2848 102.869 30.2848C102.079 30.2848 101.477 30.6383 101.066 31.3454C100.712 31.9317 100.54 32.6433 100.54 33.4846C100.54 34.3014 100.712 34.9995 101.066 35.5835C101.491 36.2906 102.086 36.6442 102.854 36.6442C103.603 36.6442 104.194 36.2862 104.619 35.5656C104.984 34.9704 105.165 34.2633 105.165 33.4466ZM107.206 33.3839C107.206 34.7444 106.819 35.861 106.04 36.7359C105.226 37.6355 104.145 38.083 102.798 38.083C101.495 38.083 100.462 37.6511 99.6895 36.7896C98.9198 35.9281 98.5349 34.8406 98.5349 33.5294C98.5349 32.1554 98.931 31.0321 99.7276 30.1595C100.522 29.2823 101.594 28.8459 102.941 28.8459C104.241 28.8459 105.288 29.2778 106.076 30.1393C106.83 30.9807 107.206 32.0592 107.206 33.3839Z" fill="white"/>
<path d="M113.601 30.7591C113.406 30.7233 113.2 30.7054 112.981 30.7054C112.29 30.7054 111.753 30.9672 111.377 31.4886C111.05 31.9518 110.887 32.5336 110.887 33.2362V37.8838H108.92L108.935 31.8176C108.935 30.7949 108.911 29.8663 108.864 29.0272H110.578L110.649 30.7233H110.701C110.909 30.1416 111.238 29.6716 111.685 29.3203C112.124 29.0048 112.598 28.8459 113.109 28.8459C113.29 28.8459 113.455 28.8594 113.601 28.8817" fill="white"/>
<path d="M120.522 32.527C120.535 31.9452 120.408 31.4395 120.142 31.0143C119.801 30.4683 119.276 30.1931 118.573 30.1931C117.931 30.1931 117.407 30.4616 117.007 30.9964C116.68 31.4216 116.483 31.9318 116.427 32.527H120.522ZM122.397 33.0372C122.397 33.3907 122.375 33.6861 122.328 33.93H116.427C116.447 34.8049 116.734 35.474 117.282 35.9349C117.779 36.3489 118.423 36.5525 119.213 36.5525C120.086 36.5525 120.882 36.4138 121.601 36.1341L121.909 37.5013C121.07 37.8638 120.081 38.0495 118.938 38.0495C117.566 38.0495 116.487 37.6445 115.704 36.8345C114.923 36.0289 114.53 34.9436 114.53 33.5831C114.53 32.2473 114.892 31.1352 115.624 30.249C116.387 29.3003 117.421 28.8281 118.718 28.8281C119.994 28.8281 120.963 29.3003 121.618 30.249C122.14 31.0009 122.397 31.9318 122.397 33.0372Z" fill="white"/>
</g>
<rect x="1.39722" y="1" width="141" height="54" rx="7" stroke="white" stroke-opacity="0.2" stroke-width="2"/>
<defs>
<clipPath id="clip0_1_720">
<rect width="101" height="26.9817" fill="white" transform="translate(21.3972 14.5093)"/>
</clipPath>
</defs>
</svg>
