<svg width="120" height="31" viewBox="0 0 120 31" fill="none" xmlns="http://www.w3.org/2000/svg">
<path d="M10.9503 22.3851H15.085V24.9591C14.2417 25.5318 13.1529 25.8339 11.7055 25.8339C8.35746 25.8339 5.97231 23.3858 5.97231 19.9308V19.8678C5.97231 16.6331 8.32599 14.0906 11.3719 14.0906C13.4865 14.0906 14.9591 14.8143 16.4695 16.0856L19.9056 11.9069C17.6715 9.96853 15.0472 8.84833 11.3405 8.84833C4.82693 8.84833 0 13.6879 0 19.8615V19.9245C0 26.3373 4.88987 30.8811 11.4663 30.8811C15.3304 30.8811 18.4078 29.4588 20.6356 27.5834V18.0806H10.9503V22.3851ZM29.6853 9.13153L20.7237 30.4657H26.8471L28.3575 26.652H36.5324L38.0428 30.4657H44.3172L35.3241 9.13153H29.6853ZM30.0755 22.0831L32.4607 16.0919L34.8144 22.0831H30.0755ZM56.0793 17.4827L51.0384 9.28257H44.8521V30.4657H50.5853V18.3323L55.9534 26.5953H56.073L61.4789 18.3008V30.4657H67.3002V9.28257H61.1139L56.0793 17.4827ZM69.6853 30.4657H75.5381V9.28257H69.6853V30.4657ZM92.039 20.4783L83.348 9.28257H77.8855V30.4657H83.6753V18.842L92.7313 30.4657H97.8288V9.28257H92.039V20.4783ZM110.315 18.0868V22.3851H114.449V24.9591C113.606 25.5318 112.517 25.8339 111.07 25.8339C107.722 25.8339 105.337 23.3858 105.337 19.9308V19.8678C105.337 16.6331 107.69 14.0906 110.736 14.0906C112.851 14.0906 114.323 14.8143 115.834 16.0856L119.27 11.9069C117.036 9.96853 114.412 8.84833 110.705 8.84833C104.191 8.84833 99.3644 13.6879 99.3644 19.8615V19.9245C99.3644 26.3373 104.254 30.8811 110.831 30.8811C114.695 30.8811 117.772 29.4588 120 27.5834V18.0806H110.315V18.0868ZM40.1951 6.34361H41.9194V0.106986H40.1951V6.34361ZM47.2247 3.40466L44.6633 0.106986H43.0522V6.34361H44.7577V2.92008L47.4261 6.34361H48.9301V0.106986H47.2247V3.40466ZM52.6809 2.46067C51.8125 2.26558 51.5985 2.13971 51.5985 1.85651V1.83763C51.5985 1.60478 51.7999 1.43486 52.2215 1.43486C52.7753 1.43486 53.3921 1.64254 53.9648 2.0516L54.8269 0.830711C54.1536 0.28949 53.3228 0 52.2656 0C50.7741 0 49.8553 0.837004 49.8553 1.99497V2.01385C49.8553 3.28508 50.8748 3.66268 52.2026 3.96476C53.0585 4.17244 53.2599 4.30459 53.2599 4.56891V4.58779C53.2599 4.85211 53.0082 5.01573 52.5425 5.01573C51.8251 5.01573 51.1454 4.75771 50.5286 4.26683L49.5595 5.4185C50.3335 6.10447 51.3719 6.4506 52.4733 6.4506C53.9836 6.4506 54.9906 5.69541 54.9906 4.41787V4.39899C54.9906 3.23474 54.0969 2.76904 52.6809 2.46067ZM60.7552 0.106986H55.3115V1.62366H57.168V6.34361H58.8924V1.62366H60.7552V0.106986ZM62.8571 0.0629327L60.2203 6.34361H62.0264L62.4733 5.22341H64.8836L65.3304 6.34361H67.1806L64.5312 0.0629327H62.8571ZM62.9767 3.87665L63.6816 2.11454L64.3738 3.87665H62.9767ZM71.9383 3.40466L69.377 0.106986H67.7722V6.34361H69.4777V2.92008L72.146 6.34361H73.6501V0.106986H71.9446V3.40466H71.9383ZM74.4053 0.106986V1.62366H76.2618V6.34361H77.9862V1.62366H79.849V0.106986H74.4053Z" fill="#FF5400"/>
</svg>
