<svg width="100" height="15" viewBox="0 0 100 15" fill="none" xmlns="http://www.w3.org/2000/svg">
<g clip-path="url(#clip0_1_138)">
<path fill-rule="evenodd" clip-rule="evenodd" d="M50.0011 12.8097L46.2174 14.7992C46.0644 14.8806 45.8916 14.9174 45.7188 14.9054C45.5459 14.8933 45.3799 14.8329 45.2397 14.7311C45.0995 14.6292 44.9908 14.49 44.9259 14.3293C44.861 14.1686 44.8426 13.993 44.8728 13.8223L45.5955 9.60792L42.5345 6.62255C42.359 6.45145 42.2587 6.21769 42.2556 5.97265C42.2524 5.72761 42.3467 5.49135 42.5177 5.31579C42.6605 5.16663 42.8454 5.07209 43.0471 5.04268L47.2783 4.42711L49.1691 0.597179C49.245 0.441456 49.3632 0.310201 49.5101 0.218383C49.657 0.126566 49.8268 0.0778809 50 0.0778809C50.1733 0.0778809 50.343 0.126566 50.4899 0.218383C50.6368 0.310201 50.755 0.441456 50.8309 0.597179L52.7217 4.42711L56.9529 5.04478C57.0735 5.06201 57.1895 5.10289 57.2942 5.16508C57.3989 5.22726 57.4903 5.30952 57.5631 5.40713C57.6359 5.50474 57.6887 5.61578 57.7185 5.73387C57.7483 5.85195 57.7544 5.97476 57.7366 6.09523C57.7072 6.29481 57.6126 6.48389 57.4656 6.62255L54.4045 9.60792L55.1273 13.8223C55.2134 14.3286 54.8751 14.8055 54.3709 14.8959C54.1692 14.9295 53.9634 14.8959 53.7827 14.8013L50.0011 12.8097Z" fill="white"/>
<path d="M92.2458 12.8096L88.4621 14.7991C88.3091 14.8806 88.1364 14.9173 87.9635 14.9053C87.7906 14.8932 87.6247 14.8328 87.4845 14.731C87.3443 14.6291 87.2355 14.4899 87.1707 14.3292C87.1058 14.1685 87.0874 13.9929 87.1175 13.8222L87.8402 9.60783L84.7792 6.62245C84.6038 6.45135 84.5035 6.21759 84.5003 5.97255C84.4972 5.72751 84.5914 5.49125 84.7624 5.3157C84.9053 5.16653 85.0902 5.07199 85.2919 5.04258L89.5231 4.42492L91.4139 0.594982C91.4898 0.439258 91.6079 0.308004 91.7549 0.216186C91.9018 0.124368 92.0715 0.0756836 92.2448 0.0756836C92.418 0.0756836 92.5878 0.124368 92.7347 0.216186C92.8816 0.308004 92.9998 0.439258 93.0757 0.594982L94.9665 4.42492L99.1977 5.04258C99.3182 5.05981 99.4342 5.10069 99.5389 5.16288C99.6436 5.22506 99.735 5.30732 99.8078 5.40494C99.8806 5.50255 99.9335 5.61358 99.9632 5.73167C99.993 5.84975 99.9992 5.97256 99.9813 6.09303C99.9519 6.29261 99.8574 6.48169 99.7103 6.62035L96.6493 9.60573L97.372 13.8201C97.4581 14.3264 97.1199 14.8033 96.6157 14.8937C96.414 14.9273 96.2081 14.8937 96.0274 14.7991L92.2458 12.8096Z" fill="white"/>
<path fill-rule="evenodd" clip-rule="evenodd" d="M7.75412 12.8096L3.97041 14.7991C3.81744 14.8806 3.64467 14.9173 3.47181 14.9053C3.29895 14.8932 3.13295 14.8328 2.99277 14.731C2.85258 14.6291 2.74384 14.4899 2.67897 14.3292C2.61409 14.1685 2.59568 13.9929 2.62584 13.8222L3.34854 9.60783L0.287539 6.62245C0.112096 6.45135 0.0117731 6.21759 0.00862147 5.97255C0.00546983 5.72751 0.0997478 5.49125 0.270732 5.3157C0.413593 5.16653 0.598471 5.07199 0.800158 5.04258L5.03136 4.42492L6.92217 0.594982C6.99809 0.439258 7.11624 0.308004 7.26316 0.216186C7.41007 0.124368 7.57983 0.0756836 7.75307 0.0756836C7.92632 0.0756836 8.09608 0.124368 8.24299 0.216186C8.3899 0.308004 8.50806 0.439258 8.58398 0.594982L10.4748 4.42492L14.706 5.04258C14.8265 5.05981 14.9425 5.10069 15.0472 5.16288C15.1519 5.22506 15.2433 5.30732 15.3161 5.40494C15.3889 5.50255 15.4418 5.61358 15.4715 5.73167C15.5013 5.84975 15.5075 5.97256 15.4896 6.09303C15.4602 6.29261 15.3657 6.48169 15.2186 6.62035L12.1597 9.60783L12.8824 13.8222C12.9685 14.3285 12.6303 14.8054 12.1261 14.8958C11.9244 14.9294 11.7185 14.8958 11.5378 14.8012L7.75412 12.8096Z" fill="white"/>
<path d="M28.8786 12.8096L25.0949 14.7991C24.942 14.8806 24.7692 14.9173 24.5963 14.9053C24.4235 14.8932 24.2575 14.8328 24.1173 14.731C23.9771 14.6291 23.8684 14.4899 23.8035 14.3292C23.7386 14.1685 23.7202 13.9929 23.7503 13.8222L24.4731 9.60783L21.412 6.62245C21.2366 6.45135 21.1363 6.21759 21.1331 5.97255C21.13 5.72751 21.2243 5.49125 21.3952 5.3157C21.5381 5.16653 21.723 5.07199 21.9247 5.04258L26.1559 4.42492L28.0467 0.594982C28.1226 0.439258 28.2408 0.308004 28.3877 0.216186C28.5346 0.124368 28.7043 0.0756836 28.8776 0.0756836C29.0508 0.0756836 29.2206 0.124368 29.3675 0.216186C29.5144 0.308004 29.6326 0.439258 29.7085 0.594982L31.5993 4.42492L35.8305 5.04258C35.9511 5.05981 36.067 5.10069 36.1717 5.16288C36.2764 5.22506 36.3678 5.30732 36.4406 5.40494C36.5135 5.50255 36.5663 5.61358 36.596 5.73167C36.6258 5.84975 36.632 5.97256 36.6141 6.09303C36.5847 6.29261 36.4902 6.48169 36.3431 6.62035L33.2821 9.60573L34.0048 13.8201C34.091 14.3264 33.7527 14.8033 33.2485 14.8937C33.0468 14.9273 32.8409 14.8937 32.6602 14.7991L28.8786 12.8096Z" fill="white"/>
<path d="M71.1235 12.8096L67.3398 14.7991C67.1868 14.8806 67.0141 14.9173 66.8412 14.9053C66.6683 14.8932 66.5023 14.8328 66.3621 14.731C66.222 14.6291 66.1132 14.4899 66.0483 14.3292C65.9835 14.1685 65.9651 13.9929 65.9952 13.8222L66.7179 9.60783L63.6569 6.62245C63.4815 6.45135 63.3812 6.21759 63.378 5.97255C63.3749 5.72751 63.4691 5.49125 63.6401 5.3157C63.783 5.16653 63.9679 5.07199 64.1695 5.04258L68.4008 4.42492L70.2916 0.594982C70.3675 0.439258 70.4856 0.308004 70.6325 0.216186C70.7795 0.124368 70.9492 0.0756836 71.1225 0.0756836C71.2957 0.0756836 71.4655 0.124368 71.6124 0.216186C71.7593 0.308004 71.8774 0.439258 71.9534 0.594982L73.8442 4.42492L78.0754 5.04258C78.1959 5.05981 78.3119 5.10069 78.4166 5.16288C78.5213 5.22506 78.6127 5.30732 78.6855 5.40494C78.7583 5.50255 78.8111 5.61358 78.8409 5.73167C78.8707 5.84975 78.8768 5.97256 78.859 6.09303C78.8296 6.29261 78.7351 6.48169 78.588 6.62035L75.527 9.60573L76.2497 13.8201C76.3358 14.3264 75.9976 14.8033 75.4934 14.8937C75.2917 14.9273 75.0858 14.8937 74.9051 14.7991L71.1235 12.8096Z" fill="white"/>
</g>
<defs>
<clipPath id="clip0_1_138">
<rect width="99.9837" height="14.8281" fill="white" transform="translate(0.00817871 0.078125)"/>
</clipPath>
</defs>
</svg>
