<svg width="81" height="12" viewBox="0 0 81 12" fill="none" xmlns="http://www.w3.org/2000/svg">
<g clip-path="url(#clip0_125_84)">
<path fill-rule="evenodd" clip-rule="evenodd" d="M40.458 10.3033L37.3959 11.9134C37.2721 11.9792 37.1323 12.009 36.9924 11.9992C36.8525 11.9895 36.7182 11.9406 36.6047 11.8582C36.4913 11.7757 36.4033 11.6631 36.3508 11.5331C36.2983 11.403 36.2834 11.2609 36.3078 11.1228L36.8927 7.71216L34.4155 5.29618C34.2735 5.15771 34.1923 4.96854 34.1898 4.77023C34.1872 4.57193 34.2635 4.38073 34.4019 4.23866C34.5175 4.11794 34.6671 4.04143 34.8303 4.01763L38.2545 3.51947L39.7847 0.42001C39.8461 0.293987 39.9418 0.187766 40.0607 0.113461C40.1795 0.0391551 40.3169 -0.000244141 40.4571 -0.000244141C40.5973 -0.000244141 40.7347 0.0391551 40.8536 0.113461C40.9725 0.187766 41.0681 0.293987 41.1296 0.42001L42.6597 3.51947L46.0839 4.01933C46.1815 4.03328 46.2753 4.06636 46.3601 4.11668C46.4448 4.16701 46.5188 4.23358 46.5777 4.31257C46.6366 4.39157 46.6794 4.48143 46.7035 4.57699C46.7276 4.67256 46.7325 4.77194 46.7181 4.86943C46.6943 5.03095 46.6178 5.18397 46.4988 5.29618L44.0216 7.71216L44.6065 11.1228C44.6762 11.5325 44.4024 11.9185 43.9944 11.9916C43.8312 12.0188 43.6646 11.9916 43.5183 11.9151L40.458 10.3033Z" fill="#FCAF02"/>
<path d="M74.6455 10.3033L71.5834 11.9133C71.4596 11.9792 71.3198 12.009 71.1799 11.9992C71.04 11.9895 70.9057 11.9406 70.7922 11.8582C70.6788 11.7757 70.5908 11.6631 70.5383 11.533C70.4858 11.403 70.4709 11.2608 70.4953 11.1228L71.0802 7.71215L68.603 5.29617C68.461 5.15771 68.3798 4.96853 68.3773 4.77022C68.3747 4.57192 68.451 4.38072 68.5894 4.23865C68.705 4.11793 68.8546 4.04142 69.0178 4.01762L72.442 3.51776L73.9722 0.418301C74.0336 0.292278 74.1293 0.186057 74.2482 0.111752C74.3671 0.0374461 74.5044 -0.00195313 74.6446 -0.00195312C74.7848 -0.00195312 74.9222 0.0374461 75.0411 0.111752C75.16 0.186057 75.2556 0.292278 75.3171 0.418301L76.8472 3.51776L80.2714 4.01762C80.369 4.03157 80.4628 4.06465 80.5476 4.11497C80.6323 4.1653 80.7063 4.23187 80.7652 4.31087C80.8241 4.38986 80.8669 4.47972 80.891 4.57528C80.9151 4.67085 80.92 4.77023 80.9056 4.86772C80.8818 5.02924 80.8053 5.18226 80.6863 5.29447L78.2091 7.71045L78.794 11.121C78.8637 11.5308 78.5899 11.9167 78.1819 11.9899C78.0187 12.0171 77.8521 11.9899 77.7058 11.9133L74.6455 10.3033Z" fill="#FCAF02"/>
<path fill-rule="evenodd" clip-rule="evenodd" d="M6.26865 10.3033L3.2066 11.9133C3.0828 11.9792 2.94298 12.009 2.80309 11.9992C2.6632 11.9895 2.52887 11.9406 2.41542 11.8582C2.30197 11.7757 2.21397 11.6631 2.16146 11.533C2.10896 11.403 2.09406 11.2608 2.11847 11.1228L2.70334 7.71215L0.226148 5.29617C0.0841676 5.15771 0.0029787 4.96853 0.00042816 4.77022C-0.00212238 4.57192 0.0741742 4.38072 0.212547 4.23865C0.32816 4.11793 0.477778 4.04142 0.640997 4.01762L4.0652 3.51776L5.59538 0.418301C5.65682 0.292278 5.75243 0.186057 5.87133 0.111752C5.99022 0.0374461 6.1276 -0.00195312 6.2678 -0.00195312C6.40801 -0.00195312 6.54539 0.0374461 6.66428 0.111752C6.78317 0.186057 6.87879 0.292278 6.94023 0.418301L8.47041 3.51776L11.8946 4.01762C11.9922 4.03157 12.086 4.06465 12.1708 4.11497C12.2555 4.1653 12.3294 4.23187 12.3884 4.31087C12.4473 4.38986 12.49 4.47972 12.5141 4.57528C12.5382 4.67085 12.5432 4.77023 12.5288 4.86772C12.505 5.02924 12.4285 5.18226 12.3095 5.29447L9.83397 7.71215L10.4188 11.1228C10.4885 11.5325 10.2148 11.9184 9.80677 11.9916C9.64355 12.0188 9.47693 11.9916 9.33071 11.915L6.26865 10.3033Z" fill="#FCAF02"/>
<path d="M23.3641 10.3033L20.3021 11.9133C20.1783 11.9792 20.0384 12.009 19.8986 11.9992C19.7587 11.9895 19.6243 11.9406 19.5109 11.8582C19.3974 11.7757 19.3094 11.6631 19.2569 11.533C19.2044 11.403 19.1895 11.2608 19.2139 11.1228L19.7988 7.71215L17.3216 5.29617C17.1796 5.15771 17.0984 4.96853 17.0959 4.77022C17.0933 4.57192 17.1696 4.38072 17.308 4.23865C17.4236 4.11793 17.5732 4.04142 17.7365 4.01762L21.1607 3.51776L22.6908 0.418301C22.7523 0.292278 22.8479 0.186057 22.9668 0.111752C23.0857 0.0374461 23.2231 -0.00195313 23.3633 -0.00195312C23.5035 -0.00195312 23.6408 0.0374461 23.7597 0.111752C23.8786 0.186057 23.9742 0.292278 24.0357 0.418301L25.5659 3.51776L28.9901 4.01762C29.0876 4.03157 29.1815 4.06465 29.2662 4.11497C29.351 4.1653 29.4249 4.23187 29.4838 4.31087C29.5428 4.38986 29.5855 4.47972 29.6096 4.57528C29.6337 4.67085 29.6387 4.77023 29.6242 4.86772C29.6004 5.02924 29.5239 5.18226 29.4049 5.29447L26.9277 7.71045L27.5126 11.121C27.5823 11.5308 27.3086 11.9167 26.9005 11.9899C26.7373 12.0171 26.5707 11.9899 26.4245 11.9133L23.3641 10.3033Z" fill="#FCAF02"/>
<path d="M57.5517 10.3033L54.4897 11.9133C54.3659 11.9792 54.2261 12.009 54.0862 11.9992C53.9463 11.9895 53.8119 11.9406 53.6985 11.8582C53.585 11.7757 53.4971 11.6631 53.4445 11.533C53.392 11.403 53.3771 11.2608 53.4016 11.1228L53.9864 7.71215L51.5092 5.29617C51.3672 5.15771 51.2861 4.96853 51.2835 4.77022C51.281 4.57192 51.3573 4.38072 51.4956 4.23865C51.6112 4.11793 51.7609 4.04142 51.9241 4.01762L55.3483 3.51776L56.8785 0.418301C56.9399 0.292278 57.0355 0.186057 57.1544 0.111752C57.2733 0.0374461 57.4107 -0.00195313 57.5509 -0.00195312C57.6911 -0.00195312 57.8285 0.0374461 57.9474 0.111752C58.0663 0.186057 58.1619 0.292278 58.2233 0.418301L59.7535 3.51776L63.1777 4.01762C63.2753 4.03157 63.3691 4.06465 63.4538 4.11497C63.5386 4.1653 63.6125 4.23187 63.6715 4.31087C63.7304 4.38986 63.7731 4.47972 63.7972 4.57528C63.8213 4.67085 63.8263 4.77023 63.8119 4.86772C63.7881 5.02924 63.7116 5.18226 63.5925 5.29447L61.1153 7.71045L61.7002 11.121C61.7699 11.5308 61.4962 11.9167 61.0881 11.9899C60.9249 12.0171 60.7583 11.9899 60.6121 11.9133L57.5517 10.3033Z" fill="#FCAF02"/>
</g>
<defs>
<clipPath id="clip0_125_84">
<rect width="80.9141" height="12" fill="white"/>
</clipPath>
</defs>
</svg>
